 http://img405.imageshack.us/img405/5999/57146109590689138922011.jpg

Country.......: USA
Genre.........: Thriller, Sci-Fi
Date release..: 09.06.2011 [World]
Director......: J.J. Abrams
Writers.......: J.J. Abrams
Duration......: 102 min.
More..........: http://www.imdb.com/title/tt1650062
Trailer.......: http://www.imdb.com/video/imdb/vi548707353
Trailer.......:

Pilot :
After witnessing a mysterious train crash, a group of friends in the summer of 1979 begin noticing strange happenings going around in their small town, and begin to investigate into the creepy phenomenon.

Cats :
Joel Courtney   	 ...  	Joe Lamb
Kyle Chandler 	... 	Jackson Lamb
Elle Fanning 	... 	Alice Dainard
Joel McKinnon Miller 	... 	Mr. Kaznyk
Riley Griffiths 	... 	Charles
Ryan Lee 	... 	Cary
Gabriel Basso 	... 	Martin
Zach Mills 	... 	Preston
Jessica Tuck 	... 	Mrs. Kaznyk
Ron Eldard 	... 	Louis Dainard
Amanda Michalka 	... 	Jen Kaznyk (as AJ Michalka)
Andrew Miller 	... 	Kaznyk Twins
Jakob Miller 	... 	Kaznyk Twins
Jade Griffiths 	... 	Benji Kaznyk
Britt Flatmo 	... 	Peg Kaznyk 

Data Technical :
!!! SAMPLE !!!
Audio.....: English
Subtitles.: None
Format                           : AVI
Format/Info                      : Audio Video Interleave
File size                        : 1.38 GiB
Duration                         : 1h 41mn
Overall bit rate                 : 1 943 Kbps
Writing library                  : VirtualDub build 32706/release
Video
ID                               : 0
Format                           : MPEG-4 Visual
Format profile                   : Advanced Simple@L5
Format settings, BVOP            : Yes
Format settings, QPel            : No
Format settings, GMC             : No warppoints
Format settings, Matrix          : Default (MPEG)
Muxing mode                      : Packed bitstream
Codec ID                         : XVID
Codec ID/Hint                    : XviD
Duration                         : 1h 41mn
Bit rate                         : 1 805 Kbps
Width                            : 720 pixels
Height                           : 304 pixels
Display aspect ratio             : 2.35:1
Frame rate                       : 24.000 fps
Color space                      : YUV
Chroma subsampling               : 4:2:0
Bit depth                        : 8 bits
Scan type                        : Progressive
Bits/(Pixel*Frame)               : 0.344
Stream size                      : 1.28 GiB (93%)
Writing library                  : XviD 61
Audio
ID                               : 1
Format                           : MPEG Audio
Format version                   : Version 1
Format profile                   : Layer 3
Mode                             : Joint stereo
Mode extension                   : MS Stereo
Codec ID                         : 55
Codec ID/Hint                    : MP3
Duration                         : 1h 41mn
Bit rate mode                    : Constant
Bit rate                         : 128 Kbps
Channel(s)                       : 2 channels
Sampling rate                    : 44.1 KHz
Stream size                      : 93.3 MiB (7%)
Alignment                        : Split accross interleaves
Interleave, duration             : 42 ms (1.00 video frame)
Interleave, preload duration     : 500 ms
Writing library                  : LAME3.98r
Encoding settings                : -m j -V 4 -q 2 -lowpass 17 -b 128

Screen : 
http://img696.imageshack.us/img696/6696/super82011s1.jpg 
http://img801.imageshack.us/img801/1343/super82011s2.jpg 
http://img546.imageshack.us/img546/3349/super82011s3.jpg 
http://img62.imageshack.us/img62/338/super82011s4.jpg 
http://img804.imageshack.us/img804/2639/super82011s5.jpg